# xmcd CD database file
#
# Track frame offsets:
#	150
#	28951
#	49469
#	77731
#	96980
#	120671
#	143583
#	169041
#	188615
#	210544
#	234877
#
# Disc length: 3408 seconds
#
# Revision: 0
# Processed by: cddbd v1.5.2PL0 Copyright (c) Steve Scherf et al.
# Submitted via: CDex 1.70beta2
#
DISCID=8f0d4e0b
DTITLE=HUGO Kiigo KG1032-2 - 雨果車音樂 1 (LPCD)
DYEAR=2006
DGENRE=New Age
TTITLE0=天地之間 - 劉星
TTITLE1=濤聲依舊 - 段皚皚
TTITLE2=盼望 - 劉星
TTITLE3=瀟灑走一回 - 姚珏
TTITLE4=藍天 - 梁志堅、李慧芬
TTITLE5=心意 - 陳國平、譚寶碩
TTITLE6=漂流的小舟 - 劉星、李鳳雲、朱文昌、劉一
TTITLE7=採桑小路 - 禹永一、陳悅
TTITLE8=虛懷若谷 - 劉星
TTITLE9=城裡的月光 - 禹永一、陳悅
TTITLE10=荷塘月色 - 武亦文、劉星、陳文、易有伍
EXTD=YEAR: 2006
EXTT0=
EXTT1=
EXTT2=
EXTT3=
EXTT4=
EXTT5=
EXTT6=
EXTT7=
EXTT8=
EXTT9=
EXTT10=
PLAYORDER=
